<?xml version="1.0" encoding="UTF-8"?>
<svg xmlns="http://www.w3.org/2000/svg" width="512" height="512" viewBox="0 0 512 512"><g><path d="M374.75,267.71l-112-176a8,8,0,0,0-13.5,0l-112,176a8,8,0,0,0-.84,6.82L180.9,408H168a8,8,0,0,0-8,8v32a8,8,0,0,0,8,8h8v40a8,8,0,0,0,8,8H328a8,8,0,0,0,8-8V456h8a8,8,0,0,0,8-8V416a8,8,0,0,0-8-8H331.1l44.49-133.47A8,8,0,0,0,374.75,267.71ZM256,288a16,16,0,1,1-16,16A16.021,16.021,0,0,1,256,288Zm64,200H192V456H320Zm16-64v16H176V424Zm-21.77-16H197.77L152.79,273.08,248,123.47V273.01a32,32,0,1,0,16,0V123.47l95.21,149.61Z" fill="#FFFFFF" /><path d="M496,8H448a8,8,0,0,0-8,8V32H288V16a8,8,0,0,0-8-8H232a8,8,0,0,0-8,8V32H72V16a8,8,0,0,0-8-8H16a8,8,0,0,0-8,8V64a8,8,0,0,0,8,8H64a8,8,0,0,0,8-8V48h96.65a202.585,202.585,0,0,0-61.51,37.02C74.16,114.38,56,152.37,56,192H48a8,8,0,0,0-8,8v32a8,8,0,0,0,8,8H80a8,8,0,0,0,8-8V200a8,8,0,0,0-8-8H72c0-70.09,64.74-129.86,152-141.82V64a8,8,0,0,0,8,8h48a8,8,0,0,0,8-8V50.18C375.26,62.14,440,121.91,440,192h-8a8,8,0,0,0-8,8v32a8,8,0,0,0,8,8h32a8,8,0,0,0,8-8V200a8,8,0,0,0-8-8h-8c0-39.63-18.16-77.62-51.14-106.98A202.585,202.585,0,0,0,343.35,48H440V64a8,8,0,0,0,8,8h48a8,8,0,0,0,8-8V16A8,8,0,0,0,496,8ZM56,56H24V24H56ZM72,224H56V208H72ZM272,56H240V24h32ZM456,224H440V208h16ZM488,56H456V24h32Z" fill="#FFFFFF" /></g></svg>
